#!OML:ASF H:\ManfredETheater\Project 1\Capture day 1\Session 1\subject.ASF
:FULLY-SPECIFIED
:DEGREES
47
root -10.5259 16.1558 -18.8341 10.7256 -1.79881 -9.10467
lowerback 21.9195 -0.0615821 6.53581
upperback 1.4977 2.13207 5.50506
thorax -10.6503 0.834771 1.74227
lowerneck -20.3781 0.0817523 -1.67698
upperneck 2.4588 0.929592 -5.01911
head 3.97183 0.112777 -1.22322
rclavicle -1.59028e-015 7.15625e-015
rhumerus -40.2056 3.42081 -81.8506
rradius 84.4292
rwrist -13.3402
rhand -28.8687 8.47798
rfingers 7.12502
rthumb -2.22489 -21.4902
lclavicle -1.59028e-015 7.15625e-015
lhumerus -44.7205 -1.42205 91.1915
lradius 64.115
lwrist 6.49195
lhand -25.1188 -12.4203
lfingers 7.12502
lthumb 1.39681 17.5548
rfemur -38.9759 -5.21601 20.7121
rtibia 62.3737
rfoot -18.2318 -17.6936
rtoes -42.1325
lfemur -37.0062 1.72713 -20.5802
ltibia 100.326
lfoot -9.24031 -2.3289
ltoes -5.35961
48
root -10.5021 16.1436 -18.3472 10.7872 -0.946928 -9.36266
lowerback 21.8777 -0.093258 6.82476
upperback 1.40718 2.18178 5.6273
thorax -10.7256 0.846213 1.70285
lowerneck -20.3401 -0.131318 -1.62016
upperneck 2.45464 0.628444 -4.97137
head 3.9589 -0.0309554 -1.24427
rclavicle -8.34896e-015 1.59028e-015
rhumerus -39.111 4.47148 -82.681
rradius 86.5269
rwrist -13.5149
rhand -28.6115 8.875
rfingers 7.12502
rthumb -1.97648 -21.0956
lclavicle -8.34896e-015 1.59028e-015
lhumerus -46.2875 -2.70427 91.7393
lradius 64.4759
lwrist 8.6274
lhand -24.402 -12.65
lfingers 7.12502
lthumb 2.08907 17.3195
rfemur -37.0163 -5.09821 20.6582
rtibia 62.6772
rfoot -18.7192 -18.9492
rtoes -43.3949
lfemur -41.28 1.86106 -20.3372
ltibia 100.228
lfoot -10.6697 -2.22157
ltoes -5.79721
49
root -10.4712 16.138 -17.857 10.8312 -0.0696855 -9.58534
lowerback 21.8224 -0.128067 7.13645
upperback 1.34034 2.22482 5.71076
thorax -10.7637 0.853052 1.6088
lowerneck -20.3028 -0.375877 -1.54893
upperneck 2.36978 0.274036 -4.8737
head 3.91936 -0.195841 -1.25627
rclavicle 2.22639e-014 2.94201e-014
rhumerus -38.2683 5.45956 -83.4642
rradius 88.9955
rwrist -13.6148
rhand -28.2508 9.39736
rfingers 7.12502
rthumb -1.62812 -20.5762
lclavicle 2.22639e-014 2.94201e-014
lhumerus -48.0095 -4.09147 92.4073
lradius 65.6246
lwrist 10.898
lhand -23.5985 -12.7499
lfingers 7.12502
lthumb 2.86507 17.2106
rfemur -35.094 -4.94416 20.5675
rtibia 63.0244
rfoot -18.7317 -19.9344
rtoes -44.5985
lfemur -45.3298 1.7951 -20.2482
ltibia 99.3797
lfoot -11.9394 -2.12985
ltoes -6.25907
50
root -10.4326 16.1428 -17.3622 10.8514 0.794845 -9.77254
lowerback 21.7501 -0.149505 7.4512
upperback 1.30803 2.27696 5.76397
thorax -10.7509 0.864433 1.47563
lowerneck -20.2691 -0.651875 -1.48236
upperneck 2.21967 -0.126348 -4.74064
head 3.85898 -0.380131 -1.25991
rclavicle -4.37326e-015 2.38542e-014
rhumerus -37.618 6.3717 -84.1609
rradius 91.6869
rwrist -13.4921
rhand -27.7525 10.023
rfingers 7.12502
rthumb -1.1469 -19.9537
lclavicle -4.37326e-015 2.38542e-014
lhumerus -49.7786 -5.39707 93.106
lradius 67.2604
lwrist 12.6785
lhand -22.8282 -12.677
lfingers 7.12502
lthumb 3.60901 17.2722
rfemur -33.2509 -4.73132 20.4331
rtibia 63.4515
rfoot -18.153 -20.5676
rtoes -45.7506
lfemur -49.0547 1.58024 -20.2772
ltibia 97.7671
lfoot -13.0435 -1.96453
ltoes -6.79126
51
root -10.3854 16.1623 -16.8616 10.8318 1.636 -9.8858
lowerback 21.6712 -0.152573 7.72202
upperback 1.31544 2.3339 5.78914
thorax -10.6887 0.881099 1.33357
lowerneck -20.2484 -0.948147 -1.42411
upperneck 2.04419 -0.551816 -4.60517
head 3.79243 -0.5768 -1.26318
rclavicle -1.63003e-014 -3.33958e-014
rhumerus -37.128 7.20155 -84.7418
rradius 94.4653
rwrist -13.0197
rhand -27.1866 10.7292
rfingers 7.12502
rthumb -0.600353 -19.2497
lclavicle -1.63003e-014 -3.33958e-014
lhumerus -51.5074 -6.49417 93.7638
lradius 69.0991
lwrist 13.5605
lhand -22.1933 -12.4596
lfingers 7.12502
lthumb 4.22215 17.4783
rfemur -31.5073 -4.47429 20.2016
rtibia 63.9813
rfoot -16.9357 -20.7098
rtoes -46.7626
lfemur -52.3329 1.24344 -20.4279
ltibia 95.3785
lfoot -13.9604 -1.64712
ltoes -7.30108
52
root -10.3293 16.1977 -16.3549 10.7557 2.41546 -9.91271
lowerback 21.6069 -0.125546 7.90996
upperback 1.36462 2.40469 5.7943
thorax -10.5882 0.909401 1.21079
lowerneck -20.2482 -1.24602 -1.36111
upperneck 1.89325 -0.974518 -4.51663
head 3.73698 -0.776075 -1.28151
rclavicle -1.15295e-014 -5.00937e-014
rhumerus -36.7807 7.94054 -85.1894
rradius 97.2214
rwrist -12.1827
rhand -26.6077 11.4602
rfingers 7.12502
rthumb -0.0412217 -18.5195
lclavicle -1.15295e-014 -5.00937e-014
lhumerus -53.1365 -7.2987 94.3266
lradius 70.9333
lwrist 13.4979
lhand -21.7106 -12.2282
lfingers 7.12502
lthumb 4.68821 17.6999
rfemur -29.8994 -4.1679 19.8459
rtibia 64.628
rfoot -14.9546 -20.2876
rtoes -47.5382
lfemur -55.0665 0.852478 -20.6914
ltibia 92.2368
lfoot -14.6769 -1.1163
ltoes -7.80273
53
root -10.2652 16.246 -15.8425 10.5993 3.13596 -9.85901
lowerback 21.5806 -0.0769726 8.00612
upperback 1.45841 2.48041 5.79261
thorax -10.4605 0.94577 1.12971
lowerneck -20.2934 -1.50458 -1.26734
upperneck 1.83004 -1.33907 -4.53267
head 3.71644 -0.955088 -1.33319
rclavicle 2.82274e-014 8.34896e-014
rhumerus -36.5513 8.58382 -85.5033
rradius 99.8624
rwrist -11.1118
rhand -26.0549 12.187
rfingers 7.12502
rthumb 0.492766 -17.7921
lclavicle 2.82274e-014 8.34896e-014
lhumerus -54.6243 -7.78274 94.7654
lradius 72.6526
lwrist 12.7609
lhand -21.3592 -12.0784
lfingers 7.12502
lthumb 5.02749 17.8419
rfemur -28.4402 -3.83355 19.3647
rtibia 65.3971
rfoot -12.1531 -19.22
rtoes -47.9277
lfemur -57.1987 0.445481 -21.0362
ltibia 88.4096
lfoot -15.1469 -0.377419
ltoes -8.18484
54
root -10.1943 16.3012 -15.3253 10.3493 3.77143 -9.75256
lowerback 21.6083 -0.00676549 8.00982
upperback 1.59462 2.56529 5.79993
thorax -10.3184 0.9921 1.10716
lowerneck -20.3942 -1.68919 -1.1254
upperneck 1.90327 -1.59891 -4.69282
head 3.74761 -1.09386 -1.43033
rclavicle 8.74653e-015 2.62396e-014
rhumerus -36.4313 9.13686 -85.6959
rradius 102.326
rwrist -10.0318
rhand -25.5627 12.8704
rfingers 7.12502
rthumb 0.968132 -17.1072
lclavicle 8.74653e-015 2.62396e-014
lhumerus -55.968 -7.94787 95.0722
lradius 74.2349
lwrist 11.7778
lhand -21.0933 -12.0883
lfingers 7.12502
lthumb 5.28423 17.8259
rfemur -27.1438 -3.46111 18.7796
rtibia 66.2815
rfoot -8.5581 -17.4519
rtoes -47.769
lfemur -58.7299 0.0933313 -21.4262
ltibia 84.0016
lfoot -15.2849 0.500393
ltoes -8.32637
55
root -10.1184 16.3588 -14.8037 9.98473 4.33039 -9.614
lowerback 21.7082 0.0726835 7.92663
upperback 1.77111 2.64841 5.82802
thorax -10.1756 1.0426 1.15633
lowerneck -20.5516 -1.75677 -0.907164
upperneck 2.13815 -1.69927 -5.03645
head 3.83936 -1.16807 -1.58569
rclavicle -1.70955e-014 -4.77083e-014
rhumerus -36.4018 9.60318 -85.7878
rradius 104.552
rwrist -9.1589
rhand -25.1555 13.4547
rfingers 7.12502
rthumb 1.3614 -16.5207
lclavicle -1.70955e-014 -4.77083e-014
lhumerus -57.1708 -7.83283 95.2521
lradius 75.6995
lwrist 10.9279
lhand -20.8717 -12.2731
lfingers 7.12502
lthumb 5.49824 17.6356
rfemur -25.982 -3.05789 18.1202
rtibia 67.2584
rfoot -4.28568 -15.0319
rtoes -46.7552
lfemur -59.6637 -0.174379 -21.8304
ltibia 79.125
lfoot -14.9422 1.40296
ltoes -8.04496
56
root -10.0395 16.4145 -14.2776 9.49618 4.82967 -9.47067
lowerback 21.8864 0.149903 7.77096
upperback 1.981 2.72085 5.88834
thorax -10.0439 1.09193 1.28459
lowerneck -20.7639 -1.67758 -0.608129
upperneck 2.54916 -1.599 -5.5692
head 3.99853 -1.1588 -1.79858
rclavicle 1.94809e-014 1.27222e-014
rhumerus -36.449 9.97183 -85.7985
rradius 106.486
rwrist -8.62356
rhand -24.8539 13.9217
rfingers 7.12502
rthumb 1.65271 -16.0516
lclavicle 1.94809e-014 1.27222e-014
lhumerus -58.2404 -7.49769 95.3163
lradius 77.0815
lwrist 10.4509
lhand -20.6339 -12.6139
lfingers 7.12502
lthumb 5.72777 17.2887
rfemur -24.9168 -2.63636 17.4381
rtibia 68.2975
rfoot 0.440275 -12.1607
rtoes -44.754
lfemur -60.035 -0.344136 -22.2151
ltibia 73.9072
lfoot -13.9811 2.23041
ltoes -7.29307
57
root -9.95956 16.4642 -13.7468 8.88239 5.30171 -9.33684
lowerback 22.1314 0.210825 7.55852
upperback 2.21298 2.76759 5.98224
thorax -9.92946 1.13174 1.48942
lowerneck -20.9997 -1.43206 -0.21417
upperneck 3.12308 -1.27367 -6.28974
head 4.22072 -1.05457 -2.06795
rclavicle -2.22639e-014 -1.82882e-014
rhumerus -36.5673 10.2176 -85.7506
rradius 108.079
rwrist -8.43901
rhand -24.6552 14.2699
rfingers 7.12502
rthumb 1.84459 -15.7018
lclavicle -2.22639e-014 -1.82882e-014
lhumerus -59.1862 -7.02317 95.2694
lradius 78.4122
lwrist 10.4115
lhand -20.3277 -13.0717
lfingers 7.12502
lthumb 6.02349 16.8226
rfemur -23.9011 -2.2263 16.7787
rtibia 69.3816
rfoot 5.02842 -9.08854
rtoes -42.0702
lfemur -59.893 -0.416718 -22.5726
ltibia 68.485
lfoot -12.3239 2.90107
ltoes -6.16927
58
root -9.88066 16.504 -13.2113 8.16012 5.76303 -9.22935
lowerback 22.421 0.25189 7.30863
upperback 2.457 2.78635 6.10744
thorax -9.83012 1.15981 1.75869
lowerneck -21.2483 -1.0196 0.260646
upperneck 3.84292 -0.718159 -7.16201
head 4.50516 -0.852126 -2.37881
rclavicle 1.19271e-015 -4.53229e-014
rhumerus -36.7425 10.3062 -85.6595
rradius 109.291
rwrist -8.53924
rhand -24.5599 14.4894
rfingers 7.12502
rthumb 1.93662 -15.4815
lclavicle 1.19271e-015 -4.53229e-014
lhumerus -59.9947 -6.50176 95.1128
lradius 79.7103
lwrist 10.7346
lhand -19.9166 -13.5589
lfingers 7.12502
lthumb 6.42037 16.3238
rfemur -22.9232 -1.85183 16.1909
rtibia 70.5208
rfoot 8.92249 -6.09085
rtoes -39.1017
lfemur -59.3208 -0.386318 -22.8994
ltibia 63.0136
lfoot -10.0085 3.35761
ltoes -4.71789
59
root -9.80447 16.5297 -12.6712 7.34476 6.24592 -9.17673
lowerback 22.7253 0.262987 7.06668
upperback 2.70098 2.77207 6.25978
thorax -9.74022 1.17174 2.06448
lowerneck -21.4704 -0.451286 0.805896
upperneck 4.6754 0.0547939 -8.14503
head 4.84193 -0.555606 -2.71569
rclavicle 1.98785e-014 -1.82882e-014
rhumerus -36.9818 10.196 -85.5383
rradius 110.102
rwrist -8.80223
rhand -24.5641 14.6184
rfingers 7.12502
rthumb 1.93256 -15.3526
lclavicle 1.98785e-014 -1.82882e-014
lhumerus -60.6517 -6.03588 94.8467
lradius 80.9742
lwrist 11.2506
lhand -19.4549 -14.006
lfingers 7.12502
lthumb 6.86607 15.8626
rfemur -21.9832 -1.55968 15.7339
rtibia 71.7458
rfoot 11.7084 -3.41718
rtoes -36.3576
lfemur -58.4125 -0.275939 -23.1752
ltibia 57.6678
lfoot -7.15635 3.59883
ltoes -3.20047
60
root -9.73189 16.5382 -12.1267 6.47506 6.75347 -9.20567
lowerback 22.9964 0.246173 6.87642
upperback 2.93222 2.73299 6.42948
thorax -9.64464 1.16978 2.36926
lowerneck -21.6462 0.248025 1.39446
upperneck 5.59761 1.01721 -9.17772
head 5.22595 -0.175485 -3.05547
rclavicle 3.18055e-014 7.39479e-014
rhumerus -37.2888 9.84734 -85.3942
rradius 110.507
rwrist -9.06751
rhand -24.6593 14.6712
rfingers 7.12502
rthumb 1.84064 -15.3006
lclavicle 3.18055e-014 7.39479e-014
lhumerus -61.1271 -5.71967 94.4614
lradius 82.1963
lwrist 11.7798
lhand -18.9917 -14.3649
lfingers 7.12502
lthumb 7.3132 15.4887
rfemur -21.1364 -1.38216 15.4467
rtibia 73.0994
rfoot 13.2009 -1.21808
rtoes -34.328
lfemur -57.2934 -0.087955 -23.3877
ltibia 52.6363
lfoot -3.96083 3.66453
ltoes -2.03538
